<?xml version="1.0" encoding="UTF-8"?>
<svg xmlns="http://www.w3.org/2000/svg" xmlns:xlink="http://www.w3.org/1999/xlink" width="250px" height="250px" viewBox="0 0 50 50" version="1.1">
<g id="surface1">
<rect x="0" y="0" width="50" height="50" style="fill:rgb(100%,100%,100%);fill-opacity:1;stroke:none;"/>
<path style=" stroke:none;fill-rule:nonzero;fill:#19bfd4;fill-opacity:1;" d="M 25 4 C 13.40625 4 4 13.40625 4 25 C 4 36.59375 13.40625 46 25 46 C 36.59375 46 46 36.59375 46 25 C 46 13.40625 36.59375 4 25 4 Z M 16.738281 40.960938 L 16.738281 39.671875 C 16.738281 39.421875 16.9375 39.222656 17.1875 39.222656 C 17.441406 39.222656 17.636719 39.421875 17.636719 39.671875 L 17.636719 43.003906 C 17.328125 42.890625 17.046875 42.753906 16.738281 42.613281 Z M 32.503906 40.960938 L 32.503906 39.671875 C 32.503906 39.421875 32.699219 39.222656 32.953125 39.222656 C 33.203125 39.222656 33.398438 39.421875 33.398438 39.671875 L 33.398438 42.554688 C 33.121094 42.695312 32.8125 42.835938 32.503906 42.949219 Z M 27.800781 35.753906 L 26.371094 34.324219 L 29.226562 32.363281 L 29.703125 32.867188 Z M 25.085938 33.175781 L 21.640625 30.824219 L 21.640625 29.957031 C 22.5625 30.402344 23.542969 30.683594 24.550781 30.738281 C 25.953125 30.824219 27.296875 30.570312 28.527344 29.984375 L 28.527344 30.824219 Z M 25.085938 29.03125 C 21.722656 29.03125 19.007812 26.316406 19.007812 22.957031 L 19.007812 18.308594 C 19.007812 18.308594 19.007812 18.28125 19.007812 18.28125 C 19.035156 18.027344 19.203125 17.832031 19.457031 17.777344 C 19.539062 17.746094 20.996094 17.074219 21.613281 15.648438 C 21.722656 15.425781 21.808594 15.199219 22.03125 15.144531 C 22.257812 15.089844 22.507812 15.199219 22.675781 15.367188 C 24.273438 17.105469 29.226562 18.726562 30.433594 18.53125 C 30.769531 18.476562 31.046875 18.699219 31.105469 19.007812 L 31.105469 22.957031 C 31.132812 26.316406 28.414062 29.03125 25.085938 29.03125 Z M 20.882812 32.363281 L 23.738281 34.324219 L 22.3125 35.753906 L 20.378906 32.867188 Z M 24.636719 44.460938 L 24.636719 36.199219 C 24.636719 35.949219 24.832031 35.753906 25.085938 35.753906 C 25.335938 35.753906 25.53125 35.949219 25.53125 36.199219 L 25.53125 44.433594 C 25.363281 44.433594 25.195312 44.433594 25.027344 44.433594 C 24.886719 44.460938 24.746094 44.460938 24.636719 44.460938 Z M 38.105469 39.390625 L 38.105469 37.65625 C 38.105469 36.703125 37.738281 35.78125 37.066406 35.078125 C 36.871094 34.855469 35.921875 34.269531 35.445312 34.070312 L 31.636719 32.699219 C 31.609375 32.503906 31.550781 32.335938 31.410156 32.195312 L 30.207031 30.9375 L 30.207031 28.890625 C 30.320312 28.808594 30.433594 28.695312 30.542969 28.613281 C 32.167969 27.101562 33.09375 24.972656 33.09375 22.761719 L 33.09375 21.050781 C 33.566406 20.015625 33.820312 18.894531 33.820312 17.746094 L 33.820312 16.320312 C 33.820312 12.679688 30.878906 9.738281 27.238281 9.738281 C 25.953125 9.738281 24.804688 9.824219 23.796875 9.90625 C 22.898438 9.964844 22.144531 10.019531 21.445312 10.019531 C 20.378906 9.992188 17.242188 9.769531 17.1875 9.738281 C 16.710938 9.738281 16.347656 10.132812 16.347656 10.578125 L 16.347656 17.71875 C 16.347656 18.867188 16.601562 19.960938 17.074219 21.023438 L 17.074219 22.507812 C 17.074219 24.972656 18.113281 27.269531 19.933594 28.835938 L 19.933594 30.9375 L 18.726562 32.195312 C 18.589844 32.335938 18.503906 32.503906 18.503906 32.699219 L 14.5 34.15625 C 14.191406 34.269531 13.910156 34.40625 13.632812 34.605469 C 13.378906 34.773438 12.847656 35.359375 12.625 35.667969 C 12.261719 36.257812 12.0625 36.929688 12.0625 37.628906 L 12.0625 39.476562 C 8.058594 35.949219 5.539062 30.769531 5.539062 25 C 5.539062 14.246094 14.246094 5.539062 25 5.539062 C 35.753906 5.539062 44.460938 14.246094 44.460938 25 C 44.460938 30.710938 41.996094 35.835938 38.105469 39.390625 Z M 38.105469 39.390625 "/>
</g>
</svg>
