<?xml version="1.0" encoding="UTF-8"?>
<svg xmlns="http://www.w3.org/2000/svg" xmlns:xlink="http://www.w3.org/1999/xlink" width="250px" height="250px" viewBox="0 0 50 50" version="1.1">
<g id="surface1">
<rect x="0" y="0" width="50" height="50" style="fill:rgb(100%,100%,100%);fill-opacity:1;stroke:none;"/>
<path style=" stroke:none;fill-rule:nonzero;fill:#19bfd4;fill-opacity:1;" d="M 25 4 C 13.40625 4 4 13.40625 4 25 C 4 36.59375 13.40625 46 25 46 C 36.59375 46 46 36.59375 46 25 C 46 13.40625 36.59375 4 25 4 Z M 28.21875 18.222656 C 28.21875 18.113281 28.164062 17.972656 28.136719 17.832031 C 28.109375 17.664062 28.050781 17.496094 27.96875 17.328125 C 27.910156 17.132812 27.800781 16.9375 27.714844 16.738281 C 27.632812 16.542969 27.492188 16.347656 27.351562 16.125 C 27.183594 15.929688 27.042969 15.703125 26.847656 15.507812 C 26.679688 15.3125 26.457031 15.117188 26.230469 14.949219 C 26.035156 14.808594 25.8125 14.640625 25.589844 14.527344 C 25.671875 14.332031 25.757812 14.136719 25.8125 13.941406 C 26.597656 14.304688 27.4375 14.753906 28.078125 15.394531 C 30.460938 17.777344 29.535156 20.546875 31.355469 18.699219 C 31.636719 18.421875 31.886719 18.113281 32.054688 17.804688 C 32.113281 17.804688 32.195312 17.804688 32.222656 17.804688 C 32.476562 17.859375 32.644531 18.054688 32.726562 18.222656 C 32.980469 18.644531 33.035156 19.230469 32.867188 19.847656 C 32.644531 20.742188 32.054688 21.277344 31.578125 21.332031 L 31.1875 21.386719 L 31.074219 21.78125 C 30.152344 25.085938 27.714844 28.613281 24.914062 28.613281 C 22.144531 28.613281 19.679688 25.085938 18.757812 21.78125 L 18.644531 21.386719 L 18.253906 21.332031 C 17.777344 21.277344 17.1875 20.742188 16.964844 19.847656 C 16.824219 19.230469 16.878906 18.644531 17.132812 18.222656 C 17.1875 18.113281 17.328125 17.972656 17.496094 17.859375 C 18.503906 19.230469 21.078125 18.953125 23.292969 17.1875 C 23.851562 16.738281 24.355469 16.234375 24.746094 15.730469 C 24.804688 15.730469 24.859375 15.730469 24.886719 15.761719 C 25.113281 15.789062 25.308594 15.871094 25.53125 15.957031 C 25.726562 16.039062 25.953125 16.125 26.148438 16.265625 C 26.34375 16.375 26.539062 16.515625 26.707031 16.628906 C 26.875 16.769531 27.042969 16.90625 27.183594 17.046875 C 27.324219 17.1875 27.464844 17.355469 27.574219 17.496094 C 27.6875 17.636719 27.773438 17.777344 27.855469 17.914062 C 27.941406 18.054688 27.996094 18.167969 28.050781 18.253906 C 28.136719 18.449219 28.191406 18.558594 28.191406 18.558594 C 28.191406 18.558594 28.246094 18.449219 28.21875 18.222656 Z M 20.742188 30.125 C 21.246094 30.375 21.722656 30.347656 21.722656 30.347656 C 21.722656 30.347656 22.003906 29.761719 21.921875 28.835938 C 22.84375 29.675781 24.972656 29.816406 24.972656 29.816406 C 24.972656 29.816406 27.101562 29.703125 28.023438 28.835938 C 27.941406 29.761719 28.21875 30.347656 28.21875 30.347656 C 28.21875 30.347656 28.695312 30.375 29.199219 30.125 C 29.453125 30.851562 28.277344 34.324219 24.972656 34.324219 C 21.667969 34.324219 20.492188 30.851562 20.742188 30.125 Z M 32.167969 43.089844 C 31.859375 43.199219 31.523438 43.339844 31.214844 43.453125 L 31.214844 39.027344 C 31.214844 38.777344 31.441406 38.550781 31.691406 38.550781 C 31.945312 38.550781 32.167969 38.777344 32.167969 39.027344 Z M 18.785156 43.453125 C 18.449219 43.339844 18.140625 43.226562 17.832031 43.089844 L 17.832031 39.027344 C 17.832031 38.777344 18.054688 38.550781 18.308594 38.550781 C 18.558594 38.550781 18.785156 38.777344 18.785156 39.027344 Z M 37.992188 39.503906 L 37.992188 36.675781 C 37.992188 34.773438 36.929688 33.0625 35.246094 32.222656 L 31.382812 30.292969 C 31.019531 30.125 30.710938 29.957031 30.460938 29.816406 C 32.894531 29.535156 34.492188 27.941406 34.492188 21.585938 C 34.492188 15.03125 30.234375 9.710938 25 9.710938 C 19.765625 9.710938 15.507812 15.03125 15.507812 21.585938 C 15.507812 26.847656 16.515625 28.890625 18.140625 29.621094 C 18.449219 29.761719 18.757812 29.84375 19.121094 29.898438 C 19.203125 29.898438 19.261719 29.929688 19.34375 29.929688 C 19.121094 30.039062 18.894531 30.179688 18.617188 30.292969 L 14.753906 32.222656 C 13.042969 33.0625 12.007812 34.773438 12.007812 36.675781 L 12.007812 39.476562 C 8.058594 35.921875 5.566406 30.769531 5.566406 25.027344 C 5.539062 14.246094 14.246094 5.539062 25 5.539062 C 35.753906 5.539062 44.460938 14.246094 44.460938 25 C 44.460938 30.769531 41.96875 35.921875 37.992188 39.503906 Z M 37.992188 39.503906 "/>
</g>
</svg>
