<svg height="140" viewBox="0 0 90 140" width="90" xmlns="http://www.w3.org/2000/svg" xmlns:xlink="http://www.w3.org/1999/xlink"><mask id="a" fill="#fff"><path d="m0 0h90v140h-90z" fill="#fff" fill-rule="evenodd"/></mask><g fill="none" fill-rule="evenodd" mask="url(#a)"><path d="m40.362 40.129 1.522.232-2.624 17.229-1.522-.233z" fill="#3a3b39"/><path d="m71.945 61.762c4.07-4.393 6.007-12.903 4.449-17.792a170.062 170.062 0 0 0 -8.075 2.065 3.586 3.586 0 0 1 -4.24-1.962l-3.182-6.956s4.298-6.438 2.126-7.39-4.57 3.718-4.57 3.718l-4.208-13.193h-6.787l-6.335 2.92s3.756 17.21 4.978 20.61c1.221 3.4 6.787 1.904 6.787 1.904l3.258 7.889c-2.939 2.516-5.772 5.454-8.428 8.55 3.54 7.026 18.976 4.898 24.227-.363" fill="#e2e1e4"/><path d="m48.44 39.093s-2.764-5.235-1.796-6.374c.967-1.139 4.11 4.896 4.11 4.896l-2.315 1.478" fill="#000" fill-opacity=".2"/><path d="m71.945 66.965c8.102-4.7 8.503-15.13 8.544-23.886-1.438.295-2.81.595-4.095.891.267 6.34-1.567 12.565-5.638 16.957-5.25 5.262-17.247 7.343-23.038 1.198a116.245 116.245 0 0 0 -3.45 4.227c7.54 4.933 19.976 5.08 27.677.613" fill="#fffffe"/><path d="m48.44 33.325c0-3.498-2.83-6.333-6.321-6.333s-6.32 2.835-6.32 6.333 2.829 6.333 6.32 6.333c3.49 0 6.32-2.835 6.32-6.333m-17.271 21.881s4.888-9.611 5.883-9.974 6.924 1.45 7.218 1.814c.293.362-2.422 8.16-2.422 8.16l-3.348-.362-1.394 3.337z" fill="#e2e1e4"/><path d="m52.888 45.686 2.805-.907-2.22 2.324zm-16.798 8.515 2.444.453-.07.379-2.444-.453zm23.404-18.751a.193.193 0 0 1 -.16-.3l2.574-3.871a.191.191 0 0 1 .266-.054.193.193 0 0 1 .054.267l-2.574 3.873a.19.19 0 0 1 -.16.086" fill="#000" fill-opacity=".2"/><g fill="#3a3b39"><path d="m53.25 30.543a.996.996 0 1 0 -1.993-.002.996.996 0 0 0 1.993.002m-10.288 2.147a.936.936 0 0 1 -.911-1.143 1.78 1.78 0 0 0 .068 3.556 1.78 1.78 0 0 0 1.778-1.781c0-.338-.1-.65-.263-.92a.93.93 0 0 1 -.672.288"/><path d="m42.119 39.093a5.766 5.766 0 0 1 -5.76-5.771 5.765 5.765 0 0 1 5.76-5.77 5.765 5.765 0 0 1 5.76 5.77 5.766 5.766 0 0 1 -5.76 5.771m0-13.35c-4.178 0-7.565 3.393-7.565 7.579s3.387 7.58 7.565 7.58 7.564-3.394 7.564-7.58-3.386-7.58-7.564-7.58"/><path d="m39.586 31.638a.385.385 0 0 1 -.35-.543 2.804 2.804 0 0 1 1.461-1.432 2.792 2.792 0 0 1 2.044-.04.386.386 0 0 1 -.27.721 2.025 2.025 0 0 0 -1.476.03c-.466.195-.851.573-1.057 1.035a.386.386 0 0 1 -.352.23m10.314-2.581a.193.193 0 0 1 -.173-.277c.242-.494.7-.878 1.227-1.03a1.994 1.994 0 0 1 1.584.224c.09.057.117.176.061.266a.192.192 0 0 1 -.265.061 1.603 1.603 0 0 0 -1.274-.18c-.424.122-.793.43-.987.828a.192.192 0 0 1 -.173.108"/></g><path d="m49.715 42.168a.385.385 0 0 1 -.313-.61 4.194 4.194 0 0 1 2.801-1.692.385.385 0 0 1 .104.764c-.9.122-1.751.637-2.279 1.377a.384.384 0 0 1 -.313.161" fill="#000" fill-opacity=".2"/><path d="m58.454 33.444-.95 1.088-5.25-14.28s-8.715 7.758-13.6 2.952c-3.847-3.783 1.039-12.104 8.279-6.392 0 0 8.083-4.041 10.299 2.351 2.216 6.393 3.55 11.38 3.55 11.38z" fill="#b3bac1"/><path d="m87.551 41.708c-1.42.254-5.746 1.1-7.062 1.37-.04 8.757-2.113 17.985-10.215 22.685-7.702 4.467-18.465 5.521-26.005.59-9.021 11.57-15.272 23.672-15.272 23.672l9.23-31.282-7.058-3.536c-3.258 5.168-19.276 39.17-21.991 51.684-2.715 12.513-.815 17.953 6.515 22.306 7.33 4.352 36.652-20.946 36.652-20.946l23.522 55.733c20.745 1.638 33.692-119.594 11.683-122.276" fill="#000" fill-opacity=".2"/><path d="m87.551 41.708c-1.42.254-5.746 1.1-7.062 1.37-.04 8.757-2.113 17.985-10.215 22.685-7.702 4.467-18.465 5.521-26.005.59-9.021 11.57-15.272 23.672-15.272 23.672l9.23-31.282-7.058-3.536c-3.258 5.168-19.276 39.17-21.991 51.684-2.715 12.513-.815 17.953 6.515 22.306 7.33 4.352 36.652-20.946 36.652-20.946l23.522 55.733c20.745 1.638 33.692-119.594 11.683-122.276" fill="#d1d2d9"/><path d="m52.345 108.251-3.899-9.578.852 12.124zm-23.349-18.225-2.01 10.301 6.232-17.747zm27.15-36.451 1.532 3.472-2.717-2.43z" fill="#000" fill-opacity=".2"/><path d="m15.632 28.347 6.926.396-.044.77-6.926-.396zm.615-14.251 10.827 5.621-.354.685-10.828-5.62zm6.566-8.096 4.76 5.203-.567.522-4.76-5.204z" fill="#b3bac1"/></g></svg>