<svg xmlns="http://www.w3.org/2000/svg" width="204" height="221" viewBox="0 0 204 221">
    <g fill="none" fill-rule="evenodd">
        <g>
            <path fill="#B3E0D0" d="M144.675 204.764c-4.426-1.29-8.315-3.94-12.075-6.502-4.1-2.794-8.339-5.683-13.169-6.668-5.786-1.18-11.79.48-17.594 2.085-6.121 1.693-12.45 3.444-18.667 1.958-3.502-.838-6.297-2.646-7.87-5.092-1.915-2.976-1.78-6.857.32-9.226 1.162-1.313 3.058-2.043 4.943-1.91l-.084 1.17c-1.529-.11-3.056.47-3.982 1.516-1.73 1.953-1.82 5.314-.211 7.817 1.409 2.19 3.95 3.819 7.157 4.585 5.925 1.416 12.104-.293 18.081-1.947 5.938-1.643 12.078-3.341 18.142-2.104 5.061 1.033 9.399 3.99 13.594 6.848 3.685 2.511 7.495 5.108 11.743 6.345 9.148 2.664 18.652-1.084 27.843-4.71l1.03-.406c9.555-3.758 20.558-6.939 29.727-2.027l-.554 1.032c-8.747-4.686-19.438-1.575-28.743 2.085l-1.03.406c-7.128 2.811-14.442 5.696-21.728 5.696-2.296 0-4.589-.286-6.873-.951z" transform="translate(.214 .001)"/>
            <path fill="#3A3B39" d="M79.5 162.807l2.285 38.342c5.188-.115 9.403.628 10.093 1.755.993-.02 2.003.1 3 .22 1.405.168 2.797.773 3.772 1.772 0 0 .55.64.742.98.896 1.59.66 3.835-.776 4.967-1.436 1.132-3.954.635-4.59-1.075-.463-1.244.136-2.702 1.162-3.55.521-.432 1.131-.726 1.778-.93-1.184-1.228-3.174-1.454-5.437-1.34-1.322 1.058-5.437 1.947-10.336 2.134-.488.018-.97.03-1.442.033l-.927.704c1.305-.31 2.826.071 3.602 1.19 1.297 1.87.127 4.835-2.063 5.479-2.2.646-4.766-1.132-4.921-3.41-.124-1.819 1.32-3.53 3.06-3.97-4.148-.079-7.37-.73-8.116-1.666-.83.041-2.362.159-3.131.478-1.09.453-1.735 1.39-1.323 2.492.245.657.865 1.11 1.162 1.745.712 1.52-1.062 3.378-2.71 3.041-1.65-.336-2.625-2.274-2.274-3.913.35-1.64 1.726-2.912 3.267-3.586 1.542-.675 3.25-.848 4.925-1.013l.01.013c.63-1.124 4.49-2.139 9.377-2.459l-2.286-38.337 2.097-.096z" transform="translate(.214 .001)"/>
            <path fill="#E73A5E" d="M60.246 162.676c15.046 7.223 43.559 0 43.559 0l-48.835-19.1s-9.77 11.876 5.276 19.1zM185.303 178.684L195.073 169.306 185.108 171.07 179.441 163.847 176.901 169.306zM108.894 216.847L113.786 220.268 100.499 220.268 110.66 202.307 116.522 204.65z" transform="translate(.214 .001)"/>
            <path fill="#3F2C48" d="M152.866 116.992c5.894 7.419 30.679 50.665 30.679 50.665l-6.253 4.888-32.474-36.88-24.388 4.754-3.908-19.718s30.451-11.128 36.344-3.71zM81.154 130.839c-11.376 5.428-21.042 11.767-26.184 20.514 0 0 .844 1.596 3.65 3.723 10.272-10.695 18.833-17.868 27.197-23.664-2.924-.38-4.663-.573-4.663-.573z" transform="translate(.214 .001)"/>
            <path fill="#523B5D" d="M85.816 131.412c-10.473 6.066-20.007 13.364-27.197 23.664 6.76 5.125 24.921 13.334 70.213 9.747l-21.103 40.217 7.816 2.734s45.724-46.465 34-58.57c-9.674-9.986-49.937-15.995-63.729-17.792z" transform="translate(.214 .001)"/>
            <path fill="#F9B6A8" d="M71.205 33.007l-1.802.01c-11.222.07-22.142 3.618-31.192 10.197 5.897 9.58 18.513 13.883 28.483 6.814 5.57-4.174 6.795-11.135 4.511-17.021zM47.59 6.785L44.939 13.422 46.076 13.482 47.59 10.916 51.062 11.968 51.905 10.309 56.821 11.568 58.976 6.785zM40.25 24.388c1.693 3.384 7.425 12.47 7.425 12.47l8.859-4.58 1.044-4.158s1.43-6.986.453-7.637c-.977-.65-2.8 4.035-2.8 4.035l-5.94-7.289-5.915 1.562s-4.82 2.213-3.126 5.597z" transform="translate(.214 .001)"/>
            <path fill="#CC395D" d="M56.304 26.5c-.108-.012-.184-.109-.172-.216.16-1.385.497-2.747 1.001-4.049.04-.1.153-.15.253-.111.1.038.15.152.112.252-.492 1.27-.821 2.6-.978 3.953-.011.1-.096.173-.194.173-.007 0-.015 0-.022-.002z" transform="translate(.214 .001)"/>
            <path fill="#FB9300" d="M51.062 47.946c4.82 3.123 15.502-.912 12.896-9.632-2.605-8.72-6.513-10.282-8.076-13.796 0 0-.13-7.81-4.3-6.247 0 0-1.823-5.467-7.424-3.254 0 0-3.909-4.816-6.774-2.343-2.866 2.473-1.173 8.59 5.471 7.159 6.644-1.432 7.625-1.172 7.625-1.172s2.015 4.555 3.578 6.638c1.563 2.082 2.287 6.117-1.722 8.72-4.01 2.603-4.01 3.514-4.01 3.514s-2.084 7.289 2.736 10.413z" transform="translate(.214 .001)"/>
            <path fill="#F57100" d="M46.77 41.438s4.292-2.733 4.292-5.467c0 0 3.843 1.562 6.97-.195 0 0-4.617-5.466-9.116-2.733 0 0-2.919 3.514-2.145 8.395z" transform="translate(.214 .001)"/>
            <path fill="#CC395D" d="M51.062 33.238s-2.54-5.661-3.908-5.076c-1.368.586 1.368 6.443 1.368 6.443l2.54-1.367z" transform="translate(.214 .001)"/>
            <path fill="#3A3B39" d="M49.698 24.518c-.432 0-.782.35-.782.781 0 .431.35.781.782.781.432 0 .782-.35.782-.781 0-.431-.35-.78-.782-.78zM44.158 27.34c-.432 0-.782.349-.782.78 0 .432.35.781.782.781.432 0 .782-.35.782-.78 0-.432-.35-.782-.782-.782zM43.551 22.747L41.467 25.351 40.856 24.863 42.94 22.259zM47.242 22.736c.242-.476.704-.83 1.267-.97.564-.14 1.138-.044 1.575.263l-.45.639c-.251-.177-.593-.23-.936-.144-.343.086-.62.292-.76.566l-.696-.354z" transform="translate(.214 .001)"/>
            <path fill="#FFFFFE" d="M75.853 32.987c-1.636.005-3.189.012-4.648.02 2.284 5.886 1.059 12.847-4.51 17.021-9.971 7.07-22.587 2.766-28.484-6.814-.472.343-.94.692-1.4 1.05-.84.655-1.696 1.342-2.562 2.061 7.904 11.39 24.68 15.573 36.353 6.827 6.516-5.095 7.074-12.858 5.251-20.165z" transform="translate(.214 .001)"/>
            <path fill="#00AEC8" d="M58.373 5.906l-2.047 6.062 59.023 21.209c-16.035-.193-29.42-.221-39.496-.19 1.823 7.307 1.265 15.07-5.25 20.165-11.673 8.746-28.45 4.564-36.354-6.827-7.834 6.502-16.608 15.679-23.83 28.107-16.331 28.1-9.61 50.369-5.472 51.54l11.529-16.204 18.758-28.046c3.65 26.252 9.777 49.93 19.736 69.63 27.747-24.599 61.552-30.65 61.552-30.65L97.958 59.984s38.69-15.228 38.69-24.014c0-25.191-78.275-30.065-78.275-30.065z" transform="translate(.214 .001)"/>
            <path fill="#B3E0D0" d="M72.72 191.66c-7.639-.64-14.137-2.763-19.316-6.31-6.025-4.127-10.138-10.427-11.002-16.854-1.15-8.559 3.006-16.79 7.668-24.41l.65-1.058.999.613-.648 1.056c-4.55 7.436-8.609 15.447-7.507 23.643.82 6.104 4.746 12.101 10.503 16.044 5.008 3.43 11.317 5.486 18.751 6.108 2.788.234 5.975.26 8.492-1.31 1.34-.837 2.379-2.313 2.71-3.854.175-.82.23-2.03-.511-3.135-.626-.933-1.73-1.522-3.03-1.615l.084-1.168c1.663.119 3.092.896 3.92 2.132.756 1.128.999 2.56.683 4.032-.395 1.84-1.635 3.603-3.235 4.602-2.032 1.267-4.454 1.6-6.698 1.6-.876 0-1.725-.05-2.513-.117z" transform="translate(.214 .001)"/>
            <path fill="#E2F3EB" d="M50.72 143.028l.297-.481c4.167-6.771 8.477-13.773 8.98-21.582.148-2.302-.046-4.671-.233-6.963-.238-2.901-.483-5.9-.054-8.854.82-5.625 5.35-11.182 10.809-10.489l-.148 1.163c-4.773-.61-8.76 4.419-9.5 9.495-.411 2.822-.171 5.754.061 8.59.19 2.333.388 4.746.235 7.133-.521 8.1-4.909 15.228-9.152 22.12l-.296.482-1-.614z" transform="translate(.214 .001)"/>
            <path fill="#00AEC8" d="M16.476 109.768c-5.306 4.717-9.407 9.998-11.53 16.204 2.103.595 8.599 7.81 52.173-17.57l-2.735-6.638-37.908 8.004z" transform="translate(.214 .001)"/>
            <path fill="#F9B6A8" d="M59.269 97.664L65.326 100.194 62.591 103.13 59.855 103.13 56.326 106.477 54.384 101.764z" transform="translate(.214 .001)"/>
            <path fill="#0080A3" d="M95.027 50.223L100.499 58.951 97.958 59.985zM121.211 35.776L109.487 33.177 115.349 33.177zM39.889 75.994L36.044 87.24 35.234 81.722z" transform="translate(.214 .001)"/>
            <path fill="#3F2C48" d="M131.967 158.771L123.956 165.17 128.832 164.823z" transform="translate(.214 .001)"/>
            <path fill="#B3E0D0" d="M24.139 25.393L17.496 26.182 17.403 25.405 24.046 24.617zM25.807 15.959L25.582 16.707 11.134 12.371 11.359 11.623z" transform="translate(.214 .001)"/>
            <path fill="#E2F3EB" d="M70.838 96.777L75.425 96.777 75.425 93.968 70.838 93.968z" transform="translate(.214 .001)"/>
            <path fill="#B3E0D0" d="M27.034 6.41L26.556 7.029 18.232.618 18.71 0zM70.449 97.664L73.26 97.664 73.26 93.081 70.449 93.081z" transform="translate(.214 .001)"/>
            <path fill="#00AEC8" d="M54.205 101.178s-26.518 6.223-37.73 8.59l-2.36 3.32 40.269-11.324-.18-.586z" transform="translate(.214 .001)"/>
        </g>
        <g>
            <path fill="#E2F3EB" d="M.199 15.309c-.407-.404-.151-1.097.42-1.141l26.748-2.05L14.08 29.089.199 15.31z" transform="translate(73.346 113.088)"/>
            <path fill="#B3E0D0" d="M24.786 1.129C25.046.449 25.699 0 26.428 0h30.648c1.17 0 2.014 1.12 1.69 2.244L51.492 27.42c-.285.988-1.19 1.668-2.22 1.668H14.08L24.786 1.13z" transform="translate(73.346 113.088)"/>
            <path fill="#E2F3EB" d="M40.065 10.94c-1.992 0-3.607 1.614-3.607 3.605 0 1.99 1.615 3.604 3.607 3.604 1.993 0 3.608-1.614 3.608-3.604 0-1.991-1.615-3.605-3.608-3.605z" transform="translate(73.346 113.088)"/>
        </g>
    </g>
</svg>
